<?xml version="1.0" encoding="UTF-8"?>
<!DOCTYPE svg PUBLIC "-//W3C//DTD SVG 1.1//EN" "http://www.w3.org/Graphics/SVG/1.1/DTD/svg11.dtd">
<svg xmlns="http://www.w3.org/2000/svg" version="1.1" width="800px" height="400px" style="shape-rendering:geometricPrecision; text-rendering:geometricPrecision; image-rendering:optimizeQuality; fill-rule:evenodd; clip-rule:evenodd" xmlns:xlink="http://www.w3.org/1999/xlink">
<g><path style="opacity:1" fill="#fdfdfe" d="M 0.5,-0.5 C 30.5,-0.5 60.5,-0.5 90.5,-0.5C 170.582,40.041 250.915,80.3744 331.5,120.5C 331.56,121.043 331.893,121.376 332.5,121.5C 333.5,80.8388 333.833,40.1721 333.5,-0.5C 342.167,-0.5 350.833,-0.5 359.5,-0.5C 359.5,52.8333 359.5,106.167 359.5,159.5C 239.5,159.5 119.5,159.5 -0.5,159.5C -0.5,150.833 -0.5,142.167 -0.5,133.5C 58.8343,133.667 118.168,133.5 177.5,133C 176.473,132.487 175.473,131.987 174.5,131.5C 116.039,102.769 57.7052,73.7693 -0.5,44.5C -0.5,39.5 -0.5,34.5 -0.5,29.5C 68.3718,64.1026 137.372,98.4359 206.5,132.5C 226.329,133.662 246.329,133.829 266.5,133C 265.956,132.283 265.289,131.783 264.5,131.5C 176.182,88.0079 88.1824,44.0079 0.5,-0.5 Z"/></g>
<g><path style="opacity:1" fill="#012169" d="M 90.5,-0.5 C 171.167,-0.5 251.833,-0.5 332.5,-0.5C 332.832,40.0034 332.499,80.3368 331.5,120.5C 250.915,80.3744 170.582,40.041 90.5,-0.5 Z"/></g>
<g><path style="opacity:1" fill="#aab5cd" d="M 332.5,-0.5 C 332.833,-0.5 333.167,-0.5 333.5,-0.5C 333.833,40.1721 333.5,80.8388 332.5,121.5C 331.893,121.376 331.56,121.043 331.5,120.5C 332.499,80.3368 332.832,40.0034 332.5,-0.5 Z"/></g>
<g><path style="opacity:1" fill="#c7102d" d="M 359.5,-0.5 C 386.167,-0.5 412.833,-0.5 439.5,-0.5C 439.5,52.8333 439.5,106.167 439.5,159.5C 559.5,159.5 679.5,159.5 799.5,159.5C 799.5,186.167 799.5,212.833 799.5,239.5C 679.5,239.5 559.5,239.5 439.5,239.5C 439.5,292.833 439.5,346.167 439.5,399.5C 412.833,399.5 386.167,399.5 359.5,399.5C 359.5,346.167 359.5,292.833 359.5,239.5C 239.5,239.5 119.5,239.5 -0.5,239.5C -0.5,212.833 -0.5,186.167 -0.5,159.5C 119.5,159.5 239.5,159.5 359.5,159.5C 359.5,106.167 359.5,52.8333 359.5,-0.5 Z"/></g>
<g><path style="opacity:1" fill="#fdfdfd" d="M 439.5,-0.5 C 448.167,-0.5 456.833,-0.5 465.5,-0.5C 465.167,40.1721 465.5,80.8388 466.5,121.5C 467.107,121.376 467.44,121.043 467.5,120.5C 548.023,80.4054 628.356,40.0721 708.5,-0.5C 718.5,-0.5 728.5,-0.5 738.5,-0.5C 651.023,43.7387 563.356,87.7387 475.5,131.5C 474.527,131.987 473.527,132.487 472.5,133C 492.671,133.829 512.671,133.662 532.5,132.5C 621.484,88.6745 710.151,44.3412 798.5,-0.5C 798.833,-0.5 799.167,-0.5 799.5,-0.5C 799.5,14.5 799.5,29.5 799.5,44.5C 741.295,73.7693 682.961,102.769 624.5,131.5C 623.527,131.987 622.527,132.487 621.5,133C 680.832,133.5 740.166,133.667 799.5,133.5C 799.5,142.167 799.5,150.833 799.5,159.5C 679.5,159.5 559.5,159.5 439.5,159.5C 439.5,106.167 439.5,52.8333 439.5,-0.5 Z"/></g>
<g><path style="opacity:1" fill="#aab5cd" d="M 465.5,-0.5 C 465.833,-0.5 466.167,-0.5 466.5,-0.5C 466.168,40.0034 466.501,80.3368 467.5,120.5C 467.44,121.043 467.107,121.376 466.5,121.5C 465.5,80.8388 465.167,40.1721 465.5,-0.5 Z"/></g>
<g><path style="opacity:1" fill="#012169" d="M 466.5,-0.5 C 547.167,-0.5 627.833,-0.5 708.5,-0.5C 628.356,40.0721 548.023,80.4054 467.5,120.5C 466.501,80.3368 466.168,40.0034 466.5,-0.5 Z"/></g>
<g><path style="opacity:1" fill="#c8142f" d="M 738.5,-0.5 C 758.5,-0.5 778.5,-0.5 798.5,-0.5C 710.151,44.3412 621.484,88.6745 532.5,132.5C 513.326,132.83 494.326,132.497 475.5,131.5C 563.356,87.7387 651.023,43.7387 738.5,-0.5 Z"/></g>
<g><path style="opacity:1" fill="#c8142f" d="M -0.5,-0.5 C -0.166667,-0.5 0.166667,-0.5 0.5,-0.5C 88.1824,44.0079 176.182,88.0079 264.5,131.5C 245.341,132.497 226.007,132.83 206.5,132.5C 137.372,98.4359 68.3718,64.1026 -0.5,29.5C -0.5,19.5 -0.5,9.5 -0.5,-0.5 Z"/></g>
<g><path style="opacity:1" fill="#012169" d="M -0.5,44.5 C 57.7052,73.7693 116.039,102.769 174.5,131.5C 116.336,132.499 58.0024,132.832 -0.5,132.5C -0.5,103.167 -0.5,73.8333 -0.5,44.5 Z"/></g>
<g><path style="opacity:1" fill="#012169" d="M 799.5,44.5 C 799.5,73.8333 799.5,103.167 799.5,132.5C 740.998,132.832 682.664,132.499 624.5,131.5C 682.961,102.769 741.295,73.7693 799.5,44.5 Z"/></g>
<g><path style="opacity:1" fill="#aab5cd" d="M 174.5,131.5 C 175.473,131.987 176.473,132.487 177.5,133C 118.168,133.5 58.8343,133.667 -0.5,133.5C -0.5,133.167 -0.5,132.833 -0.5,132.5C 58.0024,132.832 116.336,132.499 174.5,131.5 Z"/></g>
<g><path style="opacity:1" fill="#edb0ba" d="M 264.5,131.5 C 265.289,131.783 265.956,132.283 266.5,133C 246.329,133.829 226.329,133.662 206.5,132.5C 226.007,132.83 245.341,132.497 264.5,131.5 Z"/></g>
<g><path style="opacity:1" fill="#edafb9" d="M 475.5,131.5 C 494.326,132.497 513.326,132.83 532.5,132.5C 512.671,133.662 492.671,133.829 472.5,133C 473.527,132.487 474.527,131.987 475.5,131.5 Z"/></g>
<g><path style="opacity:1" fill="#aab5cd" d="M 624.5,131.5 C 682.664,132.499 740.998,132.832 799.5,132.5C 799.5,132.833 799.5,133.167 799.5,133.5C 740.166,133.667 680.832,133.5 621.5,133C 622.527,132.487 623.527,131.987 624.5,131.5 Z"/></g>
<g><path style="opacity:1" fill="#fdfdfd" d="M -0.5,239.5 C 119.5,239.5 239.5,239.5 359.5,239.5C 359.5,292.833 359.5,346.167 359.5,399.5C 350.833,399.5 342.167,399.5 333.5,399.5C 333.833,358.828 333.5,318.161 332.5,277.5C 331.893,277.624 331.56,277.957 331.5,278.5C 250.915,318.626 170.582,358.959 90.5,399.5C 80.5,399.5 70.5,399.5 60.5,399.5C 147.977,355.261 235.644,311.261 323.5,267.5C 324.473,267.013 325.473,266.513 326.5,266C 306.329,265.171 286.329,265.338 266.5,266.5C 177.516,310.325 88.8491,354.659 0.5,399.5C 0.166667,399.5 -0.166667,399.5 -0.5,399.5C -0.5,384.5 -0.5,369.5 -0.5,354.5C 57.7052,325.231 116.039,296.231 174.5,267.5C 175.473,267.013 176.473,266.513 177.5,266C 118.168,265.5 58.8343,265.333 -0.5,265.5C -0.5,256.833 -0.5,248.167 -0.5,239.5 Z"/></g>
<g><path style="opacity:1" fill="#fdfdfe" d="M 799.5,239.5 C 799.5,248.167 799.5,256.833 799.5,265.5C 740.166,265.333 680.832,265.5 621.5,266C 622.527,266.513 623.527,267.013 624.5,267.5C 682.961,296.231 741.295,325.231 799.5,354.5C 799.5,359.5 799.5,364.5 799.5,369.5C 730.628,334.897 661.628,300.564 592.5,266.5C 572.671,265.338 552.671,265.171 532.5,266C 533.044,266.717 533.711,267.217 534.5,267.5C 622.818,310.992 710.818,354.992 798.5,399.5C 768.5,399.5 738.5,399.5 708.5,399.5C 628.356,358.928 548.023,318.595 467.5,278.5C 467.44,277.957 467.107,277.624 466.5,277.5C 465.5,318.161 465.167,358.828 465.5,399.5C 456.833,399.5 448.167,399.5 439.5,399.5C 439.5,346.167 439.5,292.833 439.5,239.5C 559.5,239.5 679.5,239.5 799.5,239.5 Z"/></g>
<g><path style="opacity:1" fill="#aab5cd" d="M -0.5,266.5 C -0.5,266.167 -0.5,265.833 -0.5,265.5C 58.8343,265.333 118.168,265.5 177.5,266C 176.473,266.513 175.473,267.013 174.5,267.5C 116.336,266.501 58.0024,266.168 -0.5,266.5 Z"/></g>
<g><path style="opacity:1" fill="#edafb9" d="M 266.5,266.5 C 286.329,265.338 306.329,265.171 326.5,266C 325.473,266.513 324.473,267.013 323.5,267.5C 304.674,266.503 285.674,266.17 266.5,266.5 Z"/></g>
<g><path style="opacity:1" fill="#edb1bb" d="M 592.5,266.5 C 572.993,266.17 553.659,266.503 534.5,267.5C 533.711,267.217 533.044,266.717 532.5,266C 552.671,265.171 572.671,265.338 592.5,266.5 Z"/></g>
<g><path style="opacity:1" fill="#aab5cd" d="M 799.5,265.5 C 799.5,265.833 799.5,266.167 799.5,266.5C 740.998,266.168 682.664,266.501 624.5,267.5C 623.527,267.013 622.527,266.513 621.5,266C 680.832,265.5 740.166,265.333 799.5,265.5 Z"/></g>
<g><path style="opacity:1" fill="#012169" d="M -0.5,266.5 C 58.0024,266.168 116.336,266.501 174.5,267.5C 116.039,296.231 57.7052,325.231 -0.5,354.5C -0.5,325.167 -0.5,295.833 -0.5,266.5 Z"/></g>
<g><path style="opacity:1" fill="#c81530" d="M 266.5,266.5 C 285.674,266.17 304.674,266.503 323.5,267.5C 235.644,311.261 147.977,355.261 60.5,399.5C 40.5,399.5 20.5,399.5 0.5,399.5C 88.8491,354.659 177.516,310.325 266.5,266.5 Z"/></g>
<g><path style="opacity:1" fill="#c81530" d="M 534.5,267.5 C 553.659,266.503 572.993,266.17 592.5,266.5C 661.628,300.564 730.628,334.897 799.5,369.5C 799.5,379.5 799.5,389.5 799.5,399.5C 799.167,399.5 798.833,399.5 798.5,399.5C 710.818,354.992 622.818,310.992 534.5,267.5 Z"/></g>
<g><path style="opacity:1" fill="#012169" d="M 624.5,267.5 C 682.664,266.501 740.998,266.168 799.5,266.5C 799.5,295.833 799.5,325.167 799.5,354.5C 741.295,325.231 682.961,296.231 624.5,267.5 Z"/></g>
<g><path style="opacity:1" fill="#012169" d="M 331.5,278.5 C 332.499,318.663 332.832,358.997 332.5,399.5C 251.833,399.5 171.167,399.5 90.5,399.5C 170.582,358.959 250.915,318.626 331.5,278.5 Z"/></g>
<g><path style="opacity:1" fill="#aab5cd" d="M 331.5,278.5 C 331.56,277.957 331.893,277.624 332.5,277.5C 333.5,318.161 333.833,358.828 333.5,399.5C 333.167,399.5 332.833,399.5 332.5,399.5C 332.832,358.997 332.499,318.663 331.5,278.5 Z"/></g>
<g><path style="opacity:1" fill="#aab5cd" d="M 467.5,278.5 C 466.501,318.663 466.168,358.997 466.5,399.5C 466.167,399.5 465.833,399.5 465.5,399.5C 465.167,358.828 465.5,318.161 466.5,277.5C 467.107,277.624 467.44,277.957 467.5,278.5 Z"/></g>
<g><path style="opacity:1" fill="#012169" d="M 467.5,278.5 C 548.023,318.595 628.356,358.928 708.5,399.5C 627.833,399.5 547.167,399.5 466.5,399.5C 466.168,358.997 466.501,318.663 467.5,278.5 Z"/></g>
</svg>
